<?xml version="1.0" standalone="no"?><svg xmlns="http://www.w3.org/2000/svg" viewBox="0 0 1440 320"><path fill="#5000ca" fill-opacity="1" d="M0,288L26.7,245.3C53.3,203,107,117,160,90.7C213.3,64,267,96,320,106.7C373.3,117,427,107,480,90.7C533.3,75,587,53,640,69.3C693.3,85,747,139,800,176C853.3,213,907,235,960,224C1013.3,213,1067,171,1120,160C1173.3,149,1227,171,1280,181.3C1333.3,192,1387,192,1413,192L1440,192L1440,0L1413.3,0C1386.7,0,1333,0,1280,0C1226.7,0,1173,0,1120,0C1066.7,0,1013,0,960,0C906.7,0,853,0,800,0C746.7,0,693,0,640,0C586.7,0,533,0,480,0C426.7,0,373,0,320,0C266.7,0,213,0,160,0C106.7,0,53,0,27,0L0,0Z"></path></svg>